<?xml version="1.0" encoding="UTF-8"?>
<svg id="katman_1" xmlns="http://www.w3.org/2000/svg" xmlns:xlink="http://www.w3.org/1999/xlink" version="1.1" viewBox="0 0 592.92 841.89">
  <!-- Generator: Adobe Illustrator 29.5.0, SVG Export Plug-In . SVG Version: 2.1.0 Build 137)  -->
  <defs>
    <style>
      .st0, .st1, .st2, .st3, .st4, .st5, .st6 {
        fill: none;
      }

      .st7 {
        fill: url(#Adsız_degrade_53);
      }

      .st8 {
        fill: url(#Adsız_degrade_58);
      }

      .st9 {
        fill: url(#Adsız_degrade_56);
      }

      .st10 {
        fill: url(#Adsız_degrade_52);
      }

      .st11 {
        fill: url(#Adsız_degrade_54);
      }

      .st12 {
        fill: url(#Adsız_degrade_55);
      }

      .st13 {
        fill: url(#Adsız_degrade_57);
      }

      .st14 {
        fill: url(#Adsız_degrade_51);
      }

      .st15 {
        fill: url(#Adsız_degrade_50);
      }

      .st16 {
        fill: url(#Adsız_degrade_62);
      }

      .st17 {
        fill: url(#Adsız_degrade_64);
      }

      .st18 {
        fill: url(#Adsız_degrade_61);
      }

      .st19 {
        fill: url(#Adsız_degrade_60);
      }

      .st20 {
        fill: url(#Adsız_degrade_59);
      }

      .st21 {
        fill: url(#Adsız_degrade_38);
      }

      .st22 {
        fill: url(#Adsız_degrade_35);
      }

      .st23 {
        fill: url(#Adsız_degrade_39);
      }

      .st24 {
        fill: url(#Adsız_degrade_37);
      }

      .st25 {
        fill: url(#Adsız_degrade_36);
      }

      .st26 {
        fill: url(#Adsız_degrade_33);
      }

      .st27 {
        fill: url(#Adsız_degrade_34);
      }

      .st28 {
        fill: url(#Adsız_degrade_43);
      }

      .st29 {
        fill: url(#Adsız_degrade_41);
      }

      .st30 {
        fill: url(#Adsız_degrade_44);
      }

      .st31 {
        fill: url(#Adsız_degrade_40);
      }

      .st32 {
        fill: url(#Adsız_degrade_42);
      }

      .st33 {
        fill: url(#Adsız_degrade_45);
      }

      .st1 {
        stroke: #1d1d1b;
      }

      .st1, .st2, .st3, .st4, .st5, .st6 {
        stroke-miterlimit: 10;
      }

      .st2 {
        stroke: url(#Adsız_degrade_49);
      }

      .st3 {
        stroke: url(#Adsız_degrade_48);
      }

      .st4 {
        stroke: url(#Adsız_degrade_47);
      }

      .st5 {
        stroke: url(#Adsız_degrade_63);
      }

      .st34 {
        fill: #1d1d1b;
      }

      .st35, .st36 {
        isolation: isolate;
      }

      .st37 {
        fill: #7eadd8;
      }

      .st38 {
        fill: #fff;
      }

      .st39 {
        fill: #87bee9;
      }

      .st6 {
        stroke: #7eadd8;
        stroke-width: 2px;
      }

      .st40 {
        fill: #abcfef;
      }

      .st36 {
        fill: #7cafd1;
        font-family: Poppins-Bold, Poppins;
        font-size: 34.97px;
        font-weight: 700;
        letter-spacing: .15em;
      }
    </style>
    <linearGradient id="Adsız_degrade_33" data-name="Adsız degrade 33" x1="221.86" y1="309.91" x2="373.75" y2="309.91" gradientTransform="translate(0 795.58) scale(1 -1)" gradientUnits="userSpaceOnUse">
      <stop offset=".06" stop-color="#4485c6"/>
      <stop offset=".43" stop-color="#153d6b"/>
      <stop offset=".6" stop-color="#173a63"/>
      <stop offset=".83" stop-color="#2871b8"/>
      <stop offset="1" stop-color="#5196d1"/>
    </linearGradient>
    <linearGradient id="Adsız_degrade_34" data-name="Adsız degrade 34" x1="285.34" y1="383.41" x2="310.26" y2="383.41" gradientTransform="translate(0 168.86)" gradientUnits="userSpaceOnUse">
      <stop offset=".06" stop-color="#4485c6"/>
      <stop offset=".43" stop-color="#153d6b"/>
      <stop offset=".6" stop-color="#173a63"/>
      <stop offset=".83" stop-color="#2871b8"/>
      <stop offset="1" stop-color="#5196d1"/>
    </linearGradient>
    <linearGradient id="Adsız_degrade_35" data-name="Adsız degrade 35" x1="288.37" y1="366.3" x2="307.68" y2="366.3" gradientTransform="translate(0 168.86)" gradientUnits="userSpaceOnUse">
      <stop offset=".06" stop-color="#4485c6"/>
      <stop offset=".43" stop-color="#153d6b"/>
      <stop offset=".6" stop-color="#173a63"/>
      <stop offset=".83" stop-color="#2871b8"/>
      <stop offset="1" stop-color="#5196d1"/>
    </linearGradient>
    <linearGradient id="Adsız_degrade_36" data-name="Adsız degrade 36" x1="287.26" y1="358.42" x2="309.17" y2="358.42" gradientTransform="translate(0 168.86)" gradientUnits="userSpaceOnUse">
      <stop offset=".06" stop-color="#4485c6"/>
      <stop offset=".43" stop-color="#153d6b"/>
      <stop offset=".6" stop-color="#173a63"/>
      <stop offset=".83" stop-color="#2871b8"/>
      <stop offset="1" stop-color="#5196d1"/>
    </linearGradient>
    <linearGradient id="Adsız_degrade_37" data-name="Adsız degrade 37" x1="288.35" y1="345.79" x2="307.66" y2="345.79" gradientTransform="translate(0 168.86)" gradientUnits="userSpaceOnUse">
      <stop offset=".06" stop-color="#4485c6"/>
      <stop offset=".43" stop-color="#153d6b"/>
      <stop offset=".6" stop-color="#173a63"/>
      <stop offset=".83" stop-color="#2871b8"/>
      <stop offset="1" stop-color="#5196d1"/>
    </linearGradient>
    <linearGradient id="Adsız_degrade_38" data-name="Adsız degrade 38" x1="397.86" y1="3.22" x2="422.78" y2="3.22" gradientTransform="translate(-32.28 133.49) rotate(58.47)" gradientUnits="userSpaceOnUse">
      <stop offset=".06" stop-color="#4485c6"/>
      <stop offset=".43" stop-color="#153d6b"/>
      <stop offset=".6" stop-color="#173a63"/>
      <stop offset=".83" stop-color="#2871b8"/>
      <stop offset="1" stop-color="#5196d1"/>
    </linearGradient>
    <linearGradient id="Adsız_degrade_39" data-name="Adsız degrade 39" x1="400.88" y1="-13.87" x2="420.19" y2="-13.87" gradientTransform="translate(180.36 65.63) rotate(90)" gradientUnits="userSpaceOnUse">
      <stop offset=".06" stop-color="#4485c6"/>
      <stop offset=".43" stop-color="#153d6b"/>
      <stop offset=".6" stop-color="#173a63"/>
      <stop offset=".83" stop-color="#2871b8"/>
      <stop offset="1" stop-color="#5196d1"/>
    </linearGradient>
    <linearGradient id="Adsız_degrade_40" data-name="Adsız degrade 40" x1="192.88" y1="322.02" x2="209.25" y2="322.02" gradientTransform="translate(0 795.58) scale(1 -1)" gradientUnits="userSpaceOnUse">
      <stop offset=".06" stop-color="#4485c6"/>
      <stop offset=".43" stop-color="#153d6b"/>
      <stop offset=".6" stop-color="#173a63"/>
      <stop offset=".83" stop-color="#2871b8"/>
      <stop offset="1" stop-color="#5196d1"/>
    </linearGradient>
    <linearGradient id="Adsız_degrade_41" data-name="Adsız degrade 41" x1="202.75" y1="325.64" x2="222.4" y2="325.64" gradientTransform="translate(0 795.58) scale(1 -1)" gradientUnits="userSpaceOnUse">
      <stop offset=".06" stop-color="#4485c6"/>
      <stop offset=".43" stop-color="#153d6b"/>
      <stop offset=".6" stop-color="#173a63"/>
      <stop offset=".83" stop-color="#2871b8"/>
      <stop offset="1" stop-color="#5196d1"/>
    </linearGradient>
    <linearGradient id="Adsız_degrade_42" data-name="Adsız degrade 42" x1="389.86" y1="16.86" x2="414.77" y2="16.86" gradientTransform="translate(612.87 133.49) rotate(121.53) scale(1 -1)" gradientUnits="userSpaceOnUse">
      <stop offset=".06" stop-color="#4485c6"/>
      <stop offset=".43" stop-color="#153d6b"/>
      <stop offset=".6" stop-color="#173a63"/>
      <stop offset=".83" stop-color="#2871b8"/>
      <stop offset="1" stop-color="#5196d1"/>
    </linearGradient>
    <linearGradient id="Adsız_degrade_43" data-name="Adsız degrade 43" x1="392.87" y1="-.24" x2="412.18" y2="-.24" gradientTransform="translate(804.69 476.7) rotate(-180) scale(1 -1)" gradientUnits="userSpaceOnUse">
      <stop offset=".06" stop-color="#4485c6"/>
      <stop offset=".43" stop-color="#153d6b"/>
      <stop offset=".6" stop-color="#173a63"/>
      <stop offset=".83" stop-color="#2871b8"/>
      <stop offset="1" stop-color="#5196d1"/>
    </linearGradient>
    <linearGradient id="Adsız_degrade_44" data-name="Adsız degrade 44" x1="387.16" y1="321.87" x2="403.52" y2="321.87" gradientTransform="translate(0 795.58) scale(1 -1)" gradientUnits="userSpaceOnUse">
      <stop offset=".06" stop-color="#4485c6"/>
      <stop offset=".43" stop-color="#153d6b"/>
      <stop offset=".6" stop-color="#173a63"/>
      <stop offset=".83" stop-color="#2871b8"/>
      <stop offset="1" stop-color="#5196d1"/>
    </linearGradient>
    <linearGradient id="Adsız_degrade_45" data-name="Adsız degrade 45" x1="374" y1="325.48" x2="393.84" y2="325.48" gradientTransform="translate(0 795.58) scale(1 -1)" gradientUnits="userSpaceOnUse">
      <stop offset=".06" stop-color="#4485c6"/>
      <stop offset=".43" stop-color="#153d6b"/>
      <stop offset=".6" stop-color="#173a63"/>
      <stop offset=".83" stop-color="#2871b8"/>
      <stop offset="1" stop-color="#5196d1"/>
    </linearGradient>
    <linearGradient id="Adsız_degrade_47" data-name="Adsız degrade 47" x1="287.74" y1="271.2" x2="308.91" y2="271.2" gradientTransform="translate(0 795.58) scale(1 -1)" gradientUnits="userSpaceOnUse">
      <stop offset=".05" stop-color="#3c96d2"/>
      <stop offset=".4" stop-color="#396eb5"/>
      <stop offset=".6" stop-color="#3960a9"/>
      <stop offset=".83" stop-color="#373c8f"/>
      <stop offset="1" stop-color="#362f85"/>
    </linearGradient>
    <linearGradient id="Adsız_degrade_48" data-name="Adsız degrade 48" x1="382.33" y1="316.53" x2="382.33" y2="316.53" gradientTransform="translate(0 795.58) scale(1 -1)" gradientUnits="userSpaceOnUse">
      <stop offset=".05" stop-color="#3c96d2"/>
      <stop offset=".4" stop-color="#396eb5"/>
      <stop offset=".6" stop-color="#3960a9"/>
      <stop offset=".83" stop-color="#373c8f"/>
      <stop offset="1" stop-color="#362f85"/>
    </linearGradient>
    <linearGradient id="Adsız_degrade_49" data-name="Adsız degrade 49" x1="248.33" y1="333.96" x2="249.34" y2="333.96" gradientTransform="translate(0 795.58) scale(1 -1)" gradientUnits="userSpaceOnUse">
      <stop offset=".05" stop-color="#3c96d2"/>
      <stop offset=".4" stop-color="#396eb5"/>
      <stop offset=".6" stop-color="#3960a9"/>
      <stop offset=".83" stop-color="#373c8f"/>
      <stop offset="1" stop-color="#362f85"/>
    </linearGradient>
    <linearGradient id="Adsız_degrade_50" data-name="Adsız degrade 50" x1="206.45" y1="424.22" x2="386.89" y2="424.22" gradientTransform="translate(0 795.58) scale(1 -1)" gradientUnits="userSpaceOnUse">
      <stop offset=".06" stop-color="#4485c6"/>
      <stop offset=".43" stop-color="#153d6b"/>
      <stop offset=".6" stop-color="#173a63"/>
      <stop offset=".83" stop-color="#2871b8"/>
      <stop offset="1" stop-color="#5196d1"/>
    </linearGradient>
    <linearGradient id="Adsız_degrade_51" data-name="Adsız degrade 51" x1="284.98" y1="516.36" x2="309.9" y2="516.36" gradientTransform="translate(0 795.58) scale(1 -1)" gradientUnits="userSpaceOnUse">
      <stop offset=".06" stop-color="#4485c6"/>
      <stop offset=".43" stop-color="#153d6b"/>
      <stop offset=".6" stop-color="#173a63"/>
      <stop offset=".83" stop-color="#2871b8"/>
      <stop offset="1" stop-color="#5196d1"/>
    </linearGradient>
    <linearGradient id="Adsız_degrade_52" data-name="Adsız degrade 52" x1="288.01" y1="499.25" x2="307.32" y2="499.25" gradientTransform="translate(0 795.58) scale(1 -1)" gradientUnits="userSpaceOnUse">
      <stop offset=".06" stop-color="#4485c6"/>
      <stop offset=".43" stop-color="#153d6b"/>
      <stop offset=".6" stop-color="#173a63"/>
      <stop offset=".83" stop-color="#2871b8"/>
      <stop offset="1" stop-color="#5196d1"/>
    </linearGradient>
    <linearGradient id="Adsız_degrade_53" data-name="Adsız degrade 53" x1="286.9" y1="491.37" x2="308.81" y2="491.37" gradientTransform="translate(0 795.58) scale(1 -1)" gradientUnits="userSpaceOnUse">
      <stop offset=".06" stop-color="#4485c6"/>
      <stop offset=".43" stop-color="#153d6b"/>
      <stop offset=".6" stop-color="#173a63"/>
      <stop offset=".83" stop-color="#2871b8"/>
      <stop offset="1" stop-color="#5196d1"/>
    </linearGradient>
    <linearGradient id="Adsız_degrade_54" data-name="Adsız degrade 54" x1="287.99" y1="478.74" x2="307.3" y2="478.74" gradientTransform="translate(0 795.58) scale(1 -1)" gradientUnits="userSpaceOnUse">
      <stop offset=".06" stop-color="#4485c6"/>
      <stop offset=".43" stop-color="#153d6b"/>
      <stop offset=".6" stop-color="#173a63"/>
      <stop offset=".83" stop-color="#2871b8"/>
      <stop offset="1" stop-color="#5196d1"/>
    </linearGradient>
    <linearGradient id="Adsız_degrade_55" data-name="Adsız degrade 55" x1="230.79" y1="244.08" x2="255.71" y2="244.08" gradientTransform="translate(334.02 682.05) rotate(-121.53)" gradientUnits="userSpaceOnUse">
      <stop offset=".06" stop-color="#4485c6"/>
      <stop offset=".43" stop-color="#153d6b"/>
      <stop offset=".6" stop-color="#173a63"/>
      <stop offset=".83" stop-color="#2871b8"/>
      <stop offset="1" stop-color="#5196d1"/>
    </linearGradient>
    <linearGradient id="Adsız_degrade_56" data-name="Adsız degrade 56" x1="233.82" y1="226.98" x2="253.13" y2="226.98" gradientTransform="translate(173.2 599.3) rotate(-90)" gradientUnits="userSpaceOnUse">
      <stop offset=".06" stop-color="#4485c6"/>
      <stop offset=".43" stop-color="#153d6b"/>
      <stop offset=".6" stop-color="#173a63"/>
      <stop offset=".83" stop-color="#2871b8"/>
      <stop offset="1" stop-color="#5196d1"/>
    </linearGradient>
    <linearGradient id="Adsız_degrade_57" data-name="Adsız degrade 57" x1="232.72" y1="219.1" x2="254.63" y2="219.1" gradientTransform="translate(174.25 603.44) rotate(-90)" gradientUnits="userSpaceOnUse">
      <stop offset=".06" stop-color="#4485c6"/>
      <stop offset=".43" stop-color="#153d6b"/>
      <stop offset=".6" stop-color="#173a63"/>
      <stop offset=".83" stop-color="#2871b8"/>
      <stop offset="1" stop-color="#5196d1"/>
    </linearGradient>
    <linearGradient id="Adsız_degrade_58" data-name="Adsız degrade 58" x1="233.82" y1="206.47" x2="253.13" y2="206.47" gradientTransform="translate(334.02 682.05) rotate(-121.53)" gradientUnits="userSpaceOnUse">
      <stop offset=".06" stop-color="#4485c6"/>
      <stop offset=".43" stop-color="#153d6b"/>
      <stop offset=".6" stop-color="#173a63"/>
      <stop offset=".83" stop-color="#2871b8"/>
      <stop offset="1" stop-color="#5196d1"/>
    </linearGradient>
    <linearGradient id="Adsız_degrade_59" data-name="Adsız degrade 59" x1="384.37" y1="-4.73" x2="409.29" y2="-4.73" gradientTransform="translate(-32.28 682.05) rotate(-58.47) scale(1 -1)" gradientUnits="userSpaceOnUse">
      <stop offset=".06" stop-color="#4485c6"/>
      <stop offset=".43" stop-color="#153d6b"/>
      <stop offset=".6" stop-color="#173a63"/>
      <stop offset=".83" stop-color="#2871b8"/>
      <stop offset="1" stop-color="#5196d1"/>
    </linearGradient>
    <linearGradient id="Adsız_degrade_60" data-name="Adsız degrade 60" x1="387.39" y1="-21.82" x2="406.7" y2="-21.82" gradientTransform="translate(-203.09 333.22) scale(1 -1)" gradientUnits="userSpaceOnUse">
      <stop offset=".06" stop-color="#4485c6"/>
      <stop offset=".43" stop-color="#153d6b"/>
      <stop offset=".6" stop-color="#173a63"/>
      <stop offset=".83" stop-color="#2871b8"/>
      <stop offset="1" stop-color="#5196d1"/>
    </linearGradient>
    <linearGradient id="Adsız_degrade_61" data-name="Adsız degrade 61" x1="386.28" y1="-29.71" x2="408.19" y2="-29.71" gradientTransform="translate(-196.45 329.29) scale(1 -1)" gradientUnits="userSpaceOnUse">
      <stop offset=".06" stop-color="#4485c6"/>
      <stop offset=".43" stop-color="#153d6b"/>
      <stop offset=".6" stop-color="#173a63"/>
      <stop offset=".83" stop-color="#2871b8"/>
      <stop offset="1" stop-color="#5196d1"/>
    </linearGradient>
    <linearGradient id="Adsız_degrade_62" data-name="Adsız degrade 62" x1="387.39" y1="-42.33" x2="406.71" y2="-42.33" gradientTransform="translate(-32.28 682.05) rotate(-58.47) scale(1 -1)" gradientUnits="userSpaceOnUse">
      <stop offset=".06" stop-color="#4485c6"/>
      <stop offset=".43" stop-color="#153d6b"/>
      <stop offset=".6" stop-color="#173a63"/>
      <stop offset=".83" stop-color="#2871b8"/>
      <stop offset="1" stop-color="#5196d1"/>
    </linearGradient>
    <linearGradient id="Adsız_degrade_63" data-name="Adsız degrade 63" x1="381.06" y1="442.92" x2="381.06" y2="442.92" gradientTransform="translate(0 795.58) scale(1 -1)" gradientUnits="userSpaceOnUse">
      <stop offset=".05" stop-color="#3c96d2"/>
      <stop offset=".4" stop-color="#396eb5"/>
      <stop offset=".6" stop-color="#3960a9"/>
      <stop offset=".83" stop-color="#373c8f"/>
      <stop offset="1" stop-color="#362f85"/>
    </linearGradient>
    <linearGradient id="Adsız_degrade_64" data-name="Adsız degrade 64" x1="312.35" y1="383.93" x2="281.83" y2="433.67" gradientTransform="translate(0 795.58) scale(1 -1)" gradientUnits="userSpaceOnUse">
      <stop offset=".06" stop-color="#4485c6"/>
      <stop offset=".43" stop-color="#153d6b"/>
      <stop offset=".6" stop-color="#173a63"/>
      <stop offset=".83" stop-color="#2871b8"/>
      <stop offset="1" stop-color="#5196d1"/>
    </linearGradient>
  </defs>
  <path class="st0" d="M-245.21,423.96s0,.05-.02.15c0,.03,0,.09-.02.15-.18,1.88-1.33,12.14-4.77,17.75"/>
  <path class="st0" d="M462.3,476.57s0,.05-.02.15c0,.03,0,.09-.02.15-.18,1.88-1.33,12.14-4.77,17.75"/>
  <path class="st26" d="M373.74,464.78c-16.1,25.04-44.22,41.77-75.94,41.77s-59.84-16.72-75.94-41.77h20c13.69,15.56,33.72,25.45,55.87,25.45s43.49-9.72,57.2-25.45h18.82,0Z"/>
  <g>
    <path class="st27" d="M310.26,551.02c0-3.92-1.67-7.43-4.31-9.8-.07-.06-.13-.12-.2-.17-.37-.31-.84-.48-1.32-.48h-13.26c-.49,0-.97.18-1.34.5-.24.2-.46.42-.68.64-2.35,2.36-3.81,5.66-3.81,9.32,0,7.15,5.58,12.94,12.46,12.94s12.46-5.79,12.46-12.94h0Z"/>
    <rect class="st22" x="288.37" y="532.63" width="19.31" height="5.06"/>
    <rect class="st25" x="287.26" y="523.99" width="21.91" height="6.58"/>
    <path class="st24" d="M288.37,508.69l1.56,12.16c.06.46.45.8.91.8h14.38c.46,0,.86-.35.91-.81l1.52-12.16c.07-.55-.36-1.03-.91-1.03h-17.47c-.55,0-.98.49-.91,1.04h.01Z"/>
  </g>
  <g>
    <path class="st21" d="M187.13,494.88c3.34-2.05,5.46-5.31,6.1-8.8.02-.09.03-.17.04-.26.08-.48-.02-.97-.28-1.38l-6.93-11.3c-.26-.42-.66-.73-1.12-.88-.3-.09-.6-.18-.9-.25-3.24-.77-6.81-.29-9.94,1.63-6.1,3.74-8.12,11.53-4.52,17.39,3.6,5.87,11.46,7.59,17.55,3.85h0Z"/>
    <rect class="st23" x="191.71" y="466.51" width="5.06" height="19.31" transform="translate(-220.33 171.87) rotate(-31.53)"/>
    <path class="st31" d="M208.8,480.31l-3.11,1.91-.91.56c-.44.27-1.01.14-1.28-.31l-10.48-17.09c-.24-.39-.15-.89.18-1.18h6.82l.35.58,8.74,14.24c.27.44.14,1.02-.31,1.28h0Z"/>
    <path class="st29" d="M221.86,470.54l-11.16,5.06c-.43.19-.92.04-1.17-.36l-6.78-11.04h16.43l3.08,5.01c.29.47.11,1.09-.4,1.32h0Z"/>
  </g>
  <g>
    <path class="st32" d="M409.28,495.19c-3.34-2.05-5.46-5.31-6.1-8.8-.02-.09-.03-.17-.04-.26-.08-.48.02-.97.28-1.38l6.93-11.3c.26-.42.66-.73,1.12-.88.3-.09.6-.18.9-.25,3.24-.77,6.81-.29,9.94,1.63,6.1,3.74,8.12,11.53,4.52,17.39-3.6,5.87-11.46,7.59-17.55,3.85h0Z"/>
    <rect class="st28" x="392.51" y="473.93" width="19.31" height="5.06" transform="translate(-214.27 570.09) rotate(-58.47)"/>
    <path class="st30" d="M403.39,465.69l-10.49,17.09c-.24.39-.71.53-1.13.38-.05-.02-.1-.05-.15-.08l-4.02-2.47c-.37-.23-.52-.66-.4-1.07.02-.07.05-.15.09-.21l8.63-14.07v-.02l.65-1.05h6.17l.24.15.1.06c.44.27.57.85.31,1.28h0Z"/>
    <path class="st33" d="M393.84,464.2l-6.96,11.35c-.24.4-.74.55-1.17.36l-11.17-5.07c-.5-.23-.69-.85-.4-1.31l3.27-5.33h16.43,0Z"/>
  </g>
  <path class="st4" d="M287.79,524.09c3.71.38,7.48.58,11.29.58,3.3,0,6.57-.15,9.79-.44"/>
  <path class="st39" d="M390.02,485.48c-18.47,23.91-46.17,40.33-77.75,43.94v-5.55c29.67-3.59,55.65-19.14,72.98-41.69l4.77,3.3h0Z"/>
  <path class="st39" d="M283.96,523.62l-.27,5.53c-31-4.15-58.09-20.66-76.13-44.42l4.52-3.63c16.96,22.65,42.55,38.45,71.89,42.53h-.01Z"/>
  <path class="st3" d="M382.33,479.05"/>
  <path class="st2" d="M248.84,461.61v.02"/>
  <path class="st1" d="M222.12,409.74"/>
  <path class="st15" d="M386.89,415.11v2.11h-6.84l-8.99-4.18c0-40.85-33.62-71.83-74.47-71.83-38.74,0-70.97,30.22-74.2,68.17l-.27.36-8.08,8.07-7.57-.09-.02-2.12v-.48c0-49.49,40.73-90.22,90.22-90.22s90.22,40.73,90.22,90.22h0Z"/>
  <path class="st1" d="M224.11,416.06"/>
  <path class="st1" d="M225.14,411.87"/>
  <line class="st0" x1="222.12" y1="409.74" x2="222.39" y2="409.38"/>
  <path class="st34" d="M223.14,410.14"/>
  <line class="st0" x1="346.33" y1="311.58" x2="341.69" y2="311.58"/>
  <line class="st0" x1="360.65" y1="318.7" x2="359.35" y2="318.7"/>
  <g>
    <path class="st14" d="M309.9,280.47c0,3.92-1.67,7.43-4.31,9.8-.07.06-.13.12-.2.17-.37.31-.84.48-1.32.48h-13.26c-.49,0-.97-.18-1.34-.5-.24-.2-.46-.42-.68-.64-2.35-2.36-3.81-5.66-3.81-9.32,0-7.15,5.58-12.94,12.46-12.94s12.46,5.79,12.46,12.94h0Z"/>
    <rect class="st10" x="288.01" y="293.8" width="19.31" height="5.06"/>
    <rect class="st7" x="286.9" y="300.92" width="21.91" height="6.58"/>
    <path class="st11" d="M288.01,322.8l1.56-12.16c.06-.46.45-.8.91-.8h14.38c.46,0,.86.35.91.81l1.52,12.16c.07.55-.36,1.03-.91,1.03h-17.47c-.55,0-.98-.49-.91-1.04h.01Z"/>
  </g>
  <g>
    <path class="st12" d="M407.29,337.1c-3.34,2.05-5.46,5.31-6.1,8.8-.02.09-.03.17-.04.26-.08.48.02.97.28,1.38l6.93,11.3c.26.42.66.73,1.12.88.3.09.6.18.9.25,3.24.77,6.81.29,9.94-1.63,6.1-3.74,8.12-11.53,4.52-17.39-3.6-5.87-11.46-7.59-17.55-3.85h0Z"/>
    <rect class="st9" x="397.64" y="346.17" width="5.06" height="19.31" transform="translate(-127 261.8) rotate(-31.53)"/>
    <rect class="st13" x="390.06" y="348.82" width="6.58" height="21.91" transform="translate(-130.07 258.81) rotate(-31.53)"/>
    <path class="st8" d="M382.65,377.89l9.55-7.69c.36-.29.45-.8.21-1.2l-7.52-12.26c-.24-.4-.74-.55-1.16-.36l-11.17,5.06c-.5.23-.69.85-.4,1.32l9.14,14.89c.29.47.93.58,1.36.24h-.01Z"/>
  </g>
  <g>
    <path class="st20" d="M186.85,336.31c3.34,2.05,5.46,5.31,6.1,8.8.02.09.03.17.04.26.08.48-.02.97-.28,1.38l-6.93,11.3c-.26.42-.66.73-1.12.88-.3.09-.6.18-.9.25-3.24.77-6.81.29-9.94-1.63-6.1-3.74-8.12-11.53-4.52-17.39s11.46-7.59,17.55-3.85h0Z"/>
    <rect class="st19" x="184.3" y="352.51" width="19.31" height="5.06" transform="translate(-210.1 334.7) rotate(-58.47)"/>
    <rect class="st18" x="189.82" y="355.71" width="21.91" height="6.58" transform="translate(-210.22 342.4) rotate(-58.47)"/>
    <path class="st16" d="M211.49,377.1l-9.55-7.69c-.36-.29-.45-.8-.21-1.2l7.52-12.26c.24-.4.74-.55,1.16-.36l11.17,5.06c.5.23.69.85.4,1.32l-9.14,14.89c-.29.47-.93.58-1.36.24h0Z"/>
  </g>
  <path class="st39" d="M412.83,415.8c0,.67,0,1.34-.02,2.01h-6.26v-1.24c0-15.15-3.11-29.58-8.71-42.68l5.98-2.72c5.79,13.72,9,28.81,9,44.64h.01Z"/>
  <path class="st39" d="M181.84,415.8c0,.67,0,1.34.02,2.01h6.26v-1.24c0-15.15,3.11-29.58,8.71-42.68l-5.98-2.72c-5.79,13.72-9,28.81-9,44.64h0Z"/>
  <path class="st39" d="M283.15,301.87v7.08c-29.28,3.98-54.86,19.65-71.88,42.13l-5-4.52c18.16-24.01,45.54-40.67,76.88-44.69Z"/>
  <path class="st5" d="M381.06,352.66"/>
  <path class="st39" d="M389.46,346.36l-5.37,4.03c-7.57-9.84-16.79-18.35-27.25-25.11-3.75-2.42-7.66-4.63-11.71-6.58-10.46-5.05-21.84-8.47-33.84-9.95v-7.07c12.38,1.43,24.16,4.84,35.03,9.89,3.3,1.53,6.53,3.23,9.65,5.06,1.14.66,2.26,1.35,3.37,2.06,11.62,7.36,21.82,16.74,30.11,27.66h.01Z"/>
  <path class="st38" d="M331.81,411.17"/>
  <path class="st38" d="M331.76,413.73"/>
  <path class="st0" d="M331.64,413.51s-.03-.11-.03-.2"/>
  <line class="st6" x1="184.41" y1="422.56" x2="412.83" y2="422.56"/>
  <line class="st6" x1="194.32" y1="460.39" x2="403.52" y2="460.39"/>
  <path class="st37" d="M240.6,405.31c10.78-7.23,21.81-14.1,33.12-20.47l.38.26,8.95,6.19c8.94,6.22,18.31,11.75,27.59,17.43l-.75-.06c4.3-2.07,8.62-4.08,12.94-6.09,4.48-2.1,8.98-4.18,13.5-6.19l.46.27c6.09,3.54,12.16,7.13,18.17,10.81l-.42-.09,5.38-.42.24-.02c2.34,2.21,4.65,4.46,6.95,6.72l-.13.15c-2.47-1.96-4.92-3.94-7.34-5.95l.4.13-5.35.77-.2.03-.22-.12c-6.23-3.31-12.39-6.72-18.54-10.17l.96.05c-4.33,1.99-8.69,3.93-13.05,5.84-4.5,1.98-9,3.96-13.52,5.89-6.12-4.14-12.15-8.42-18.35-12.44-5.3-3.49-13.03-8.09-18.53-11.41l.83.02c-8.13,5.12-16.49,9.87-24.89,14.52-2.81,1.54-5.63,3.05-8.49,4.52l-.1-.17h.01Z"/>
  <path class="st17" d="M258.12,390.89s3.64-20.41,24.3-28.64c0,0,20.03-8.85,42.24,6.52,0,0,12.89,9.47,15.06,26.09l-4.19-2.33-23.45,12.42-37.27-23.6-16.69,9.54h0Z"/>
  <path class="st39" d="M297.93,379.35c.11-1.74,1.25-1.72,2.39-4.76.29-.75.44-1.48.5-2.17.11,0,.21.02.32.03.24.02.48.05.72.08.56.08,1.13.17,1.68.28.31.06.62.13.92.2h.02c.36.71.66,1.45.89,2.21.17.56.3,1.13.38,1.71.03.18.05.37.07.55.03.33.05.64.05.94,0,.15,0,.3-.02.44,0,.14-.02.28-.03.41,0,.05,0,.11-.02.15v.12c-.02.07-.02.14-.03.2-.12.74-.34,1.35-.63,1.84-.05.08-.09.14-.14.21-.35.53-.8.92-1.29,1.18-.05.03-.11.05-.17.08-.02,0-.05.02-.06.03-.08.04-.17.07-.26.1-.05.02-.1.03-.15.05-.1.03-.2.05-.3.08-.29.06-.58.08-.87.07h-.11c-.08,0-.17-.02-.25-.03-.11,0-.23-.02-.32-.05-.08,0-.15-.02-.23-.05-.6-.13-1.02-.34-1.42-.56-1.12-.62-1.76-2.02-1.67-3.34h0Z"/>
  <path class="st39" d="M307.45,381.44v.08c-.41,6.35-7.04,6.77-9.12,6.42-2.45-.41-5.63-2.26-6.49-5.98-1.01-4.38,1.44-6.61,4.11-9.5h0c.58-.06,1.17-.11,1.76-.12.26,0,.52,0,.78,0h.25c.35,0,.68,0,1.02.03-.1,1.15-.52,2.08-1.05,2.86-1.48,2.16-2.49,3.59-1.67,6.63.41,1.51,1.34,2.4,2.25,2.92,1.01.58,2.19.77,3.34.62.65-.08,1.21-.22,1.7-.4,2.04-.75,2.77-2.23,3.02-3.35,0,.05-.02.11-.02.15.05-.23.08-.43.11-.62-.02.13-.05.26-.07.41.05-.35.09-.74.09-1.15,0,.05,0,.08,0,.13v.14c.02.22.02.48-.02.75h0Z"/>
  <path class="st0" d="M305.8,379.45v.09c-.05.58-.41,3.73-1.47,5.44"/>
  <g>
    <path class="st40" d="M307.35,381.63c0,.05-.02.11-.02.15,0,.02,0,.03,0,.05-.3,1.59-1.04,2.56-1.79,3.35-.98,1.03-2.74,1.48-3.9,1.89-1.15.41-4.51-.77-6.46-3.01-1.95-2.25-1.42-6.96.83-8.8.84-.68,1.38-1.78,1.71-2.93.56-1.92.56-4.02.5-4.7-.1-.89-1.49-2.69-2.01-3.34-.02-.02-.04-.05-.06-.07-.02-.02-.03-.05-.05-.06.06.07.11.14.17.2l.02.02c.46.55.86,1.07,1.21,1.58h0c1.87,2.66,2.41,4.74,2.27,6.39-.1,1.15-.52,2.08-1.05,2.86-1.48,2.16-2.49,3.59-1.67,6.63.41,1.51,1.34,2.4,2.25,2.92,1.01.58,2.19.77,3.34.62.65-.08,1.21-.22,1.7-.4,2.04-.75,2.77-2.23,3.02-3.35h0Z"/>
    <path class="st40" d="M307.47,380.66v.12c0,.08-.02.15-.02.24,0,.05,0,.09-.02.14-.02.13-.05.26-.07.41.05-.35.09-.74.09-1.15,0,.05,0,.08,0,.13v.11h0Z"/>
    <path class="st40" d="M307.47,380.66v.12c0,.23,0,.44-.02.65v.08c-.41,6.35-7.04,6.77-9.12,6.42-2.45-.41-5.63-2.26-6.49-5.98-1.01-4.38,1.44-6.61,4.11-9.5h0c.25-.27.5-.56.76-.84,2.71-3.06-.27-6.99-.68-7.5l.05.05s.03.04.05.05c.02.02.05.05.06.07,0,0,.02.02.02.02.02.02.03.03.05.05l.02.02c.48.54.88,1.07,1.21,1.58h0c1.73,2.6,1.77,4.74,1.25,6.37s-1.6,2.75-2.11,3.34c-.35.4-.83,1.02-1.05,1.39-.92,1.49-.97,2.92-.5,4.62.59,2.09,1.99,3.2,1.99,3.2,0,0,2.28,2.32,6.57.83,2.49-.86,3.37-2.58,3.67-3.86,0-.02,0-.03,0-.05.05-.23.08-.43.11-.62,0-.05,0-.09.02-.14.02-.16.02-.3.02-.42v.06h.03Z"/>
    <path class="st40" d="M301.91,372.73v10.64s-.07,0-.11,0c-1.07-.08-1.67-.37-2.22-.68-1.12-.62-1.76-2.02-1.67-3.34.11-1.74,1.25-1.72,2.39-4.76.29-.75.44-1.48.5-2.17.15-1.83-.36-3.42-.89-4.53-.42-.87-.86-1.45-1-1.63l1.89,2.11,1.05,4.17.05.2h0Z"/>
    <path class="st40" d="M305.86,378.42c0,.15,0,.3-.02.44,0,.14-.02.28-.03.41,0,.05,0,.11-.02.15v.12c-.02.07-.02.14-.03.2-.12.74-.34,1.35-.63,1.84-.05.08-.09.14-.14.21-.35.53-.8.92-1.29,1.18-.05.03-.11.05-.17.08-.02,0-.05.02-.06.03-.08.04-.17.07-.26.1-.05.02-.1.03-.15.05-.1.03-.2.05-.3.08-.29.06-.58.08-.87.07h-.11c-.08,0-.17-.02-.25-.03-1.25-.17-2.37-.98-2.74-2.19-.89-2.94.83-3.65,1.54-5.43.3-.76.72-1.87.77-3.25.05-1.31-.23-2.85-1.22-4.57-.7-1.2-1.74-2.47-3.28-3.81.35.26,4.38,3.26,7,7.44h0l.53.91.31.59c.36.71.66,1.45.89,2.21.17.56.3,1.13.38,1.71.03.18.05.37.07.55.03.33.05.64.05.94v-.02Z"/>
  </g>
  <g class="st35">
    <text class="st36" transform="translate(137.81 452.1)"><tspan x="0" y="0">AFTL SHIPPING</tspan></text>
  </g>
</svg>